# xmcd
#
# Track frame offsets:
#	150
#	8951
#	31570
#	41022
#	61036
#	77015
#	83755
#	111574
#	125576
#	143440
#	158909
#	172401
#	195607
#	207509
#
# Disc length: 2908 seconds
#
# Revision: 1
# Processed by: cddbd v1.5.2PL0 Copyright (c) Steve Scherf et al.
# Submitted via: audiograbber 1.83.01
#
DISCID=b90b5a0e
DTITLE=Koslowski - Arschloch
DYEAR=1900
DGENRE=deutsch
TTITLE0=Fackel Nicht So Lange
TTITLE1=Wieder Im Revier
TTITLE2=Bei Siggi Um 9
TTITLE3=Eitelkeit
TTITLE4=Der Brummer
TTITLE5=Koslowski Beat
TTITLE6=Sp‰tschicht
TTITLE7=Heiﬂer Stoff
TTITLE8=Arschloch
TTITLE9=Ich Hab Sie Alle Gehabt
TTITLE10=Auf Trabbel
TTITLE11=Alibi Bar
TTITLE12=Auf Video
TTITLE13=Rote Strapse
EXTD=
EXTT0=
EXTT1=
EXTT2=
EXTT3=
EXTT4=
EXTT5=
EXTT6=
EXTT7=
EXTT8=
EXTT9=
EXTT10=
EXTT11=
EXTT12=
EXTT13=
PLAYORDER=
